Coordinates
version=1
nRows=43
nColumns=12
inDegrees=yes

Units are S.I. units (second, meters, Newtons, ...)
Angles are in degrees

endheader
time	SC_y	SC_z	SC_x	AC_y	AC_z	AC_x	GH_y	GH_z	GH_yy	EL_x	PS_y
       0.0              -59.86          39.09          50.62          64.23           2.08         -18.22         -176.6          5.417          73.58          133.8          44.31
  0.007435              -59.85          39.09          50.62          64.23          2.081         -18.21         -176.5          5.423          73.58          133.8          44.33
   0.01487              -59.85          39.09          50.62          64.23          2.082         -18.21         -176.5           5.43          73.59          133.8          44.34
   0.02231              -59.84          39.08          50.62          64.23          2.083         -18.21         -176.4          5.437          73.59          133.8          44.36
   0.02974              -59.84          39.08          50.62          64.22          2.084          -18.2         -176.4          5.445           73.6          133.8          44.38
   0.03718              -59.83          39.07          50.62          64.22          2.085          -18.2         -176.3          5.453           73.6          133.7           44.4
   0.04461              -59.82          39.07          50.62          64.22          2.086          -18.2         -176.3          5.462          73.61          133.7          44.42
   0.05205              -59.82          39.06          50.62          64.22          2.087         -18.19         -176.2          5.472          73.61          133.7          44.45
   0.05948              -59.81          39.06          50.62          64.22          2.089         -18.19         -176.1          5.482          73.62          133.7          44.47
   0.06692               -59.8          39.05          50.62          64.22           2.09         -18.18         -176.0          5.493          73.63          133.6           44.5
   0.07435              -59.79          39.05          50.62          64.21          2.092         -18.18         -176.0          5.504          73.64          133.6          44.52
   0.08179              -59.79          39.04          50.62          64.21          2.094         -18.17         -175.9          5.517          73.64          133.6          44.56
   0.08922              -59.78          39.03          50.63          64.21          2.095         -18.17         -175.8          5.531          73.65          133.5          44.59
   0.09666              -59.77          39.02          50.63          64.21          2.097         -18.16         -175.7          5.545          73.66          133.5          44.62
    0.1041              -59.76          39.01          50.63          64.21          2.099         -18.15         -175.5          5.561          73.67          133.5          44.66
    0.1115              -59.74           39.0          50.63           64.2          2.102         -18.14         -175.4          5.578          73.68          133.4           44.7
     0.119              -59.73          38.99          50.63           64.2          2.104         -18.13         -175.3          5.597           73.7          133.4          44.75
    0.1264              -59.72          38.98          50.63           64.2          2.107         -18.12         -175.1          5.617          73.71          133.3           44.8
    0.1338               -59.7          38.97          50.63          64.19           2.11         -18.11         -175.0           5.64          73.73          133.3          44.85
    0.1413              -59.68          38.96          50.63          64.19          2.113          -18.1         -174.8          5.664          73.74          133.2          44.91
    0.1487              -59.67          38.94          50.63          64.18          2.117         -18.09         -174.6          5.691          73.76          133.1          44.98
    0.1561              -59.65          38.93          50.63          64.18          2.121         -18.08         -174.4           5.72          73.78          133.1          45.05
    0.1636              -59.62          38.91          50.63          64.17          2.125         -18.06         -174.2          5.753           73.8          133.0          45.13
     0.171               -59.6          38.89          50.63          64.17           2.13         -18.05         -173.9          5.789          73.82          132.9          45.21
    0.1784              -59.57          38.86          50.63          64.16          2.136         -18.03         -173.6          5.829          73.85          132.8          45.31
    0.1859              -59.54          38.84          50.63          64.15          2.142         -18.01         -173.3          5.873          73.88          132.7          45.42
    0.1933              -59.51          38.81          50.63          64.15          2.148         -17.98         -172.9          5.923          73.91          132.5          45.54
    0.2008              -59.47          38.78          50.63          64.14          2.156         -17.96         -172.5           5.98          73.95          132.4          45.68
    0.2082              -59.42          38.75          50.63          64.13          2.164         -17.93         -172.1          6.043          73.99          132.2          45.83
    0.2156              -59.37          38.71          50.63          64.12          2.174         -17.89         -171.5          6.116          74.04          132.0           46.0
    0.2231              -59.32          38.66          50.63           64.1          2.185         -17.86         -170.9          6.198          74.09          131.8           46.2
    0.2305              -59.25          38.61          50.63          64.09          2.198         -17.81         -170.3          6.293          74.15          131.6          46.43
    0.2379              -59.18          38.55          50.63          64.07          2.213         -17.76         -169.5          6.402          74.23          131.3           46.7
    0.2454              -59.09          38.48          50.64          64.05           2.23          -17.7         -168.5          6.529          74.31          131.0           47.0
    0.2528              -58.98          38.39          50.64          64.03           2.25         -17.63         -167.5          6.677          74.41          130.6          47.36
    0.2602              -58.86           38.3          50.64           64.0          2.273         -17.55         -166.2          6.852          74.52          130.2          47.79
    0.2677              -58.72          38.18          50.64          63.96          2.301         -17.46         -164.7          7.061          74.66          129.6          48.29
    0.2751              -58.55          38.04          50.65          63.92          2.335         -17.34         -162.9           7.31          74.82          129.0           48.9
    0.2825              -58.34          37.87          50.65          63.87          2.375          -17.2         -160.7          7.612          75.02          128.2          49.63
      0.29              -58.09          37.67          50.65          63.81          2.425         -17.03         -158.0           7.98          75.26          127.3          50.52
    0.2974              -57.77          37.42          50.66          63.74          2.486         -16.82         -154.7          8.435          75.56          126.1          51.62
    0.3048              -57.38           37.1          50.66          63.65          2.563         -16.56         -150.6          9.002          75.93          124.7          52.99
    0.3123              -56.89           36.7          50.67          63.53          2.659         -16.23         -145.5          9.717           76.4          122.9          54.72
